<?xml version="1.0" encoding="UTF-8"?>
<svg width="12px" height="10px" viewBox="0 0 12 10" version="1.1" xmlns="http://www.w3.org/2000/svg" xmlns:xlink="http://www.w3.org/1999/xlink">
    <title>navigation-right-circle-1-alternate-1@3x</title>
    <g id="Web" stroke="none" stroke-width="1" fill="none" fill-rule="evenodd">
        <g id="Typo" transform="translate(-1234.000000, -272.000000)" fill="#e20520" fill-rule="nonzero">
            <g id="navigation-right-circle-1-alternate-1" transform="translate(1234.000000, 272.000000)">
                <path d="M6.31279069,8.14507926 L7.97477319,6.45796361 C8.03560821,6.39569729 8.05362805,6.3024502 8.02047207,6.22148607 C7.9873161,6.14052194 7.90947337,6.08768655 7.8230605,6.08749388 L1.07141729,6.08749388 C0.479689861,6.08749388 0,5.60080097 0,5.00043483 C0,4.40006869 0.479689861,3.91337577 1.07141729,3.91337577 L7.82477477,3.91337577 C7.91156338,3.91353332 7.98987524,3.86056085 8.02310882,3.77921672 C8.05634239,3.6978726 8.03793403,3.60422235 7.97648746,3.5420364 L6.31450496,1.85492075 C5.89627203,1.43058196 5.89627204,0.742592867 6.31450498,0.31825409 C6.73273792,-0.106084688 7.41082749,-0.106084698 7.82906044,0.318254067 L11.6861627,4.23166666 C11.8871014,4.43538953 12,4.71178671 12,5 C12,5.2882133 11.8871014,5.56461048 11.6861627,5.76833334 L7.82906044,9.68174594 C7.41082749,10.1060847 6.73273792,10.1060847 6.31450499,9.68174591 C5.89627205,9.25740714 5.89627203,8.56941805 6.31450496,8.14507926 L6.31279069,8.14507926 Z" id="Path"></path>
            </g>
        </g>
    </g>
</svg>