<?xml version="1.0" encoding="UTF-8"?>
<svg width="9px" height="18px" viewBox="0 0 9 18" version="1.1" xmlns="http://www.w3.org/2000/svg" xmlns:xlink="http://www.w3.org/1999/xlink">
    <title>1479877254 06 facebook</title>
    <g id="Web" stroke="none" stroke-width="1" fill="none" fill-rule="evenodd">
        <g id="Typo" transform="translate(-1555.000000, -68.000000)" fill="#FFFFFF" fill-rule="nonzero">
            <g id="1479877254-06-facebook" transform="translate(1555.000000, 68.000000)">
                <path d="M8.08128,5.63148 L5.32908,5.63148 L5.32908,3.82644 C5.32908,3.14856 5.77836,2.99052 6.0948,2.99052 C6.41052,2.99052 8.037,2.99052 8.037,2.99052 L8.037,0.01044 L5.3622,0 C2.39292,0 1.7172,2.22264 1.7172,3.645 L1.7172,5.63148 L0,5.63148 L0,8.70228 L1.7172,8.70228 C1.7172,12.6432 1.7172,17.3916 1.7172,17.3916 L5.32908,17.3916 C5.32908,17.3916 5.32908,12.5964 5.32908,8.70228 L7.76628,8.70228 L8.08128,5.63148 Z" id="Path"></path>
            </g>
        </g>
    </g>
</svg>