<?xml version="1.0" encoding="UTF-8"?>
<svg width="19px" height="15px" viewBox="0 0 19 15" version="1.1" xmlns="http://www.w3.org/2000/svg" xmlns:xlink="http://www.w3.org/1999/xlink">
    <title>1479877257 03 twitter</title>
    <g id="Web" stroke="none" stroke-width="1" fill="none" fill-rule="evenodd">
        <g id="Typo" transform="translate(-1587.000000, -69.000000)" fill="#FFFFFF" fill-rule="nonzero">
            <g id="Group-9" transform="translate(1555.000000, 68.000000)">
                <g id="1479877257-03-twitter" transform="translate(32.081280, 1.000000)">
                    <path d="M18,1.73156324 C17.3382863,2.0256988 16.6261494,2.22410328 15.8789355,2.31289203 C16.641861,1.8561598 17.2268437,1.13269594 17.5027099,0.26965471 C16.7891115,0.693136837 15.9991474,1.00042628 15.157664,1.16631143 C14.484258,0.448693746 13.5243895,0 12.462213,0 C10.4229949,0 8.76962426,1.65337068 8.76962426,3.69295414 C8.76962426,3.9819743 8.8021436,4.26368674 8.86535534,4.53443761 C5.79611473,4.38024481 3.07472139,2.91029779 1.25327325,0.675963705 C0.935387613,1.2211193 0.753425492,1.85542902 0.753425492,2.53285427 C0.753425492,3.81389684 1.40527373,4.94440046 2.39619999,5.60647951 C1.79112113,5.58711406 1.22148468,5.42086353 0.723463857,5.14426649 C0.723098471,5.15961269 0.723098471,5.17532428 0.723098471,5.19103587 C0.723098471,6.97996468 1.99610255,8.47220023 3.68564643,8.81200901 C3.37579928,8.89604774 3.04950977,8.94135558 2.71262408,8.94135558 C2.47439255,8.94135558 2.24310334,8.91833628 2.01766031,8.87485537 C2.48791182,10.3418793 3.85153158,11.409902 5.46726752,11.4394982 C4.20339809,12.4300591 2.61141222,13.0205225 0.880945131,13.0205225 C0.583155715,13.0205225 0.289020157,13.002984 0,12.9686377 C1.63473601,14.0169295 3.57566531,14.6278546 5.66092199,14.6278546 C12.4538091,14.6278546 16.1679557,9.00091346 16.1679557,4.1208209 C16.1679557,3.96078193 16.1646672,3.80110834 16.1577249,3.64253091 C16.8789964,3.12295232 17.5052676,2.47220023 18,1.73156324 Z" id="Path"></path>
                </g>
            </g>
        </g>
    </g>
</svg>