<?xml version="1.0" encoding="UTF-8"?>
<svg width="19px" height="18px" viewBox="0 0 19 18" version="1.1" xmlns="http://www.w3.org/2000/svg" xmlns:xlink="http://www.w3.org/1999/xlink">
    <title>1479877265 18 youtube</title>
    <g id="Web" stroke="none" stroke-width="1" fill="none" fill-rule="evenodd">
        <g id="Typo" transform="translate(-565.000000, -4687.000000)" fill="#fff" fill-rule="nonzero">
            <g id="Group-14" transform="translate(0.000000, 4039.000000)">
                <g id="Group-9" transform="translate(474.000000, 648.000000)">
                    <g id="1479877265-18-youtube" transform="translate(91.937280, 0.000000)">
                        <path d="M14.43168,8.226 L3.22524,8.226 C1.44396,8.226 0,9.6714 0,11.45232 L0,14.04468 C0,15.8256 1.44396,17.27064 3.22524,17.27064 L14.43168,17.27064 C16.2126,17.27064 17.65692,15.8256 17.65692,14.04468 L17.65692,11.45232 C17.65692,9.6714 16.2126,8.226 14.43168,8.226 Z M5.57964,10.24416 L4.5378,10.24416 L4.5378,15.42096 L3.53124,15.42096 L3.53124,10.24416 L2.49012,10.24416 L2.49012,9.3636 L5.57964,9.3636 L5.57964,10.24416 L5.57964,10.24416 Z M8.52264,15.42096 L7.62984,15.42096 L7.62984,14.93136 C7.46388,15.11244 7.29288,15.25068 7.11432,15.34392 C6.93576,15.44112 6.76332,15.48648 6.59556,15.48648 C6.3882,15.48648 6.23412,15.4206 6.12864,15.28668 C6.02496,15.15312 5.97204,14.95512 5.97204,14.68764 L5.97204,10.95192 L6.86484,10.95192 L6.86484,14.3802 C6.86484,14.48604 6.88464,14.562 6.92028,14.60916 C6.9588,14.65776 7.02,14.68008 7.10388,14.68008 C7.16868,14.68008 7.2522,14.64912 7.35264,14.58648 C7.4538,14.52312 7.54596,14.44392 7.62984,14.346 L7.62984,10.95156 L8.52264,10.95156 L8.52264,15.42096 L8.52264,15.42096 Z M11.76408,14.49828 C11.76408,14.814 11.69388,15.05664 11.55384,15.22584 C11.41452,15.39504 11.21076,15.4782 10.94688,15.4782 C10.7712,15.4782 10.61496,15.44652 10.47924,15.381 C10.3428,15.3162 10.21428,15.21648 10.09728,15.07824 L10.09728,15.4206 L9.19368,15.4206 L9.19368,9.3636 L10.09728,9.3636 L10.09728,11.31444 C10.21824,11.17944 10.34604,11.07468 10.4796,11.00448 C10.61604,10.93284 10.7532,10.89828 10.89216,10.89828 C11.17476,10.89828 11.39004,10.9926 11.53908,11.18304 C11.68884,11.37348 11.76336,11.65248 11.76336,12.01824 L11.76336,14.49828 L11.76408,14.49828 Z M14.86116,13.29408 L13.1526,13.29408 L13.1526,14.13612 C13.1526,14.37084 13.1814,14.53428 13.23972,14.62536 C13.29948,14.7168 13.39992,14.76144 13.54284,14.76144 C13.69116,14.76144 13.79376,14.72292 13.85352,14.64588 C13.91112,14.56812 13.94208,14.39892 13.94208,14.13612 L13.94208,13.93272 L14.86116,13.93272 L14.86116,14.16204 C14.86116,14.61996 14.74992,14.9652 14.5242,15.19812 C14.30208,15.42888 13.96728,15.54336 13.52232,15.54336 C13.12164,15.54336 12.80592,15.42132 12.5766,15.1758 C12.348,14.93172 12.23136,14.59296 12.23136,14.1624 L12.23136,12.15504 C12.23136,11.76876 12.3588,11.45088 12.61188,11.20716 C12.86424,10.96344 13.18932,10.84176 13.58928,10.84176 C13.9986,10.84176 14.31288,10.95444 14.53212,11.18052 C14.75136,11.40696 14.86116,11.73096 14.86116,12.15468 L14.86116,13.29408 L14.86116,13.29408 Z" id="Shape"></path>
                        <path d="M13.55148,11.62296 C13.40892,11.62296 13.3074,11.66292 13.24548,11.74644 C13.18212,11.82492 13.1526,11.9592 13.1526,12.14676 L13.1526,12.59856 L13.94208,12.59856 L13.94208,12.14676 C13.94208,11.9592 13.9104,11.82456 13.84776,11.74644 C13.78764,11.66328 13.6872,11.62296 13.55148,11.62296 Z" id="Path"></path>
                        <path d="M10.47096,11.60784 C10.4076,11.60784 10.34352,11.62188 10.28196,11.65104 C10.21932,11.67948 10.15812,11.72664 10.09764,11.78784 L10.09764,14.57172 C10.16928,14.64372 10.2402,14.69916 10.30932,14.73084 C10.37808,14.76144 10.44936,14.77872 10.52532,14.77872 C10.63512,14.77872 10.71504,14.74704 10.76652,14.68296 C10.81728,14.6196 10.8432,14.51844 10.8432,14.37552 L10.8432,12.06756 C10.8432,11.91564 10.81296,11.80188 10.7496,11.72376 C10.68408,11.64672 10.5912,11.60784 10.47096,11.60784 Z" id="Path"></path>
                        <polygon id="Path" points="4.6926 6.67368 5.82444 6.67368 5.82444 3.90528 7.1424 0 5.99184 0 5.29128 2.6676 5.22 2.6676 4.48452 0 3.3444 0 4.6926 4.02984"></polygon>
                        <path d="M8.676,6.79788 C9.1332,6.79788 9.49176,6.678 9.75312,6.43824 C10.01268,6.1974 10.14264,5.86872 10.14264,5.44752 L10.14264,2.90448 C10.14264,2.52972 10.0098,2.2212 9.7452,1.98324 C9.4788,1.746 9.13752,1.62648 8.72136,1.62648 C8.26416,1.62648 7.9002,1.73952 7.62948,1.96524 C7.35948,2.19096 7.22376,2.49372 7.22376,2.8764 L7.22376,5.42808 C7.22376,5.84676 7.35588,6.17796 7.61976,6.42636 C7.88364,6.67368 8.23644,6.79788 8.676,6.79788 Z M8.25912,2.83896 C8.25912,2.73204 8.29764,2.64564 8.37288,2.57796 C8.451,2.51172 8.55,2.47968 8.67312,2.47968 C8.80596,2.47968 8.9136,2.51172 8.99568,2.57796 C9.0774,2.64564 9.11808,2.73204 9.11808,2.83896 L9.11808,5.52132 C9.11808,5.65272 9.07812,5.75712 8.99712,5.83236 C8.91684,5.90796 8.80884,5.94504 8.67312,5.94504 C8.54028,5.94504 8.43768,5.90904 8.36568,5.83344 C8.29476,5.75964 8.25876,5.65596 8.25876,5.52096 L8.25876,2.83896 L8.25912,2.83896 Z" id="Shape"></path>
                        <path d="M11.66076,6.74568 C11.84976,6.74568 12.0438,6.69168 12.2436,6.588 C12.44556,6.48288 12.63888,6.32916 12.82284,6.12864 L12.82284,6.67404 L13.82832,6.67404 L13.82832,1.75104 L12.82284,1.75104 L12.82284,5.48784 C12.72924,5.59476 12.6252,5.6826 12.5136,5.75244 C12.39984,5.82156 12.30624,5.85612 12.23244,5.85612 C12.13812,5.85612 12.06864,5.8302 12.02796,5.77656 C11.98656,5.72508 11.96316,5.64084 11.96316,5.52528 L11.96316,1.75104 L10.95912,1.75104 L10.95912,5.86548 C10.95912,6.15888 11.01816,6.37812 11.1348,6.52356 C11.2536,6.67116 11.42712,6.74568 11.66076,6.74568 Z" id="Path"></path>
                    </g>
                </g>
            </g>
        </g>
    </g>
</svg>