<?xml version="1.0" encoding="UTF-8"?>
<svg width="18px" height="18px" viewBox="0 0 18 18" version="1.1" xmlns="http://www.w3.org/2000/svg" xmlns:xlink="http://www.w3.org/1999/xlink">
    <title>1479877243 38 instagram</title>
    <g id="Web" stroke="none" stroke-width="1" fill="none" fill-rule="evenodd">
        <g id="Typo" transform="translate(-532.000000, -4687.000000)" fill="#EFDB69" fill-rule="nonzero">
            <g id="Group-14" transform="translate(0.000000, 4039.000000)">
                <g id="Group-9" transform="translate(474.000000, 648.000000)">
                    <g id="1479877243-38-instagram" transform="translate(58.081280, 0.000000)">
                        <path d="M8.928,4.284 C6.408,4.284 4.32,6.336 4.32,8.892 C4.32,11.448 6.372,13.5 8.928,13.5 C11.484,13.5 13.536,11.412 13.536,8.892 C13.536,6.372 11.448,4.284 8.928,4.284 Z M8.928,11.844 C7.308,11.844 5.976,10.512 5.976,8.892 C5.976,7.272 7.308,5.94 8.928,5.94 C10.548,5.94 11.88,7.272 11.88,8.892 C11.88,10.512 10.548,11.844 8.928,11.844 Z" id="Shape"></path>
                        <circle id="Oval" cx="13.716" cy="4.176" r="1.044"></circle>
                        <path d="M16.416,1.476 C15.48,0.504 14.148,0 12.636,0 L5.22,0 C2.088,0 0,2.088 0,5.22 L0,12.6 C0,14.148 0.504,15.48 1.512,16.452 C2.484,17.388 3.78,17.856 5.256,17.856 L12.6,17.856 C14.148,17.856 15.444,17.352 16.38,16.452 C17.352,15.516 17.856,14.184 17.856,12.636 L17.856,5.22 C17.856,3.708 17.352,2.412 16.416,1.476 Z M16.2,12.636 C16.2,13.752 15.876,14.652 15.228,15.264 C14.58,15.876 13.68,16.2 12.6,16.2 L5.256,16.2 C4.176,16.2 3.276,15.876 2.628,15.264 C1.98,14.616 1.656,13.716 1.656,12.6 L1.656,5.22 C1.656,4.14 1.98,3.24 2.628,2.592 C3.24,1.98 4.176,1.656 5.256,1.656 L12.672,1.656 C13.752,1.656 14.652,1.98 15.3,2.628 C15.912,3.276 16.272,4.176 16.272,5.22 L16.272,12.636 L16.2,12.636 Z" id="Shape"></path>
                    </g>
                </g>
            </g>
        </g>
    </g>
</svg>