<svg width="16" height="16" viewBox="0 0 16 16" xmlns="http://www.w3.org/2000/svg"><g fill="none" fill-rule="evenodd"><path d="M0 0h16v16H0z"/><path d="M13.23 3.73a.96.96 0 11-1.92 0 .96.96 0 011.92 0zM8 10.667a2.667 2.667 0 110-5.334 2.667 2.667 0 010 5.334zm0-6.775a4.108 4.108 0 100 8.216 4.108 4.108 0 000-8.216zm0-2.45c2.136 0 2.39.008 3.233.046.78.036 1.203.166 1.485.276.373.145.64.318.92.598.28.28.453.546.598.92.11.282.24.705.276 1.486.038.843.047 1.096.047 3.232s-.008 2.39-.047 3.233c-.036.78-.166 1.204-.276 1.485-.145.374-.318.64-.598.92-.28.28-.546.454-.92.599-.282.11-.705.24-1.485.275-.844.039-1.097.047-3.233.047s-2.39-.008-3.233-.047c-.78-.035-1.203-.166-1.485-.275a2.479 2.479 0 01-.92-.599 2.479 2.479 0 01-.599-.92c-.11-.281-.24-.705-.275-1.485-.039-.844-.047-1.097-.047-3.233s.008-2.389.047-3.232c.036-.78.166-1.204.275-1.486.146-.373.319-.64.599-.92.28-.28.546-.453.92-.598.282-.11.705-.24 1.485-.276.844-.038 1.097-.046 3.233-.046zM8 0C5.827 0 5.555.01 4.702.048 3.85.087 3.269.222 2.76.42a3.92 3.92 0 00-1.417.923A3.92 3.92 0 00.42 2.76C.222 3.269.087 3.85.048 4.702.01 5.555 0 5.827 0 8s.01 2.445.048 3.298c.039.852.174 1.433.372 1.942.204.526.478.973.923 1.417.445.445.89.719 1.417.923.509.198 1.09.333 1.942.372C5.555 15.99 5.827 16 8 16s2.445-.01 3.298-.048c.852-.039 1.433-.174 1.942-.372a3.922 3.922 0 001.417-.923 3.9 3.9 0 00.923-1.417c.198-.509.333-1.09.372-1.942C15.99 10.445 16 10.173 16 8s-.01-2.445-.048-3.298c-.039-.852-.174-1.433-.372-1.942a3.922 3.922 0 00-.923-1.417A3.922 3.922 0 0013.24.42c-.509-.198-1.09-.333-1.942-.372C10.445.01 10.173 0 8 0z" fill="#FFF"/></g></svg>