<svg xmlns="http://www.w3.org/2000/svg" width="768" height="768" viewBox="0 0 768 768"><path fill="#fff" d="M513.312 507.392c-1.088.832-2.144 1.76-3.168 2.784s-1.92 2.048-2.784 3.168C467.104 552.16 412.352 576 352 576c-61.856 0-117.824-25.024-158.4-65.6S128 413.856 128 352s25.024-117.824 65.6-158.4S290.144 128 352 128s117.824 25.024 158.4 65.6S576 290.144 576 352c0 60.352-23.84 115.104-62.688 155.392zm181.312 141.984l-117.6-117.6C616.416 482.496 640 420 640 352c0-79.52-32.256-151.552-84.352-203.648S431.52 64 352 64s-151.552 32.256-203.648 84.352S64 272.48 64 352s32.256 151.552 84.352 203.648S272.48 640 352 640c68 0 130.496-23.584 179.776-62.976l117.6 117.6c12.512 12.512 32.768 12.512 45.248 0s12.512-32.768 0-45.248z"/></svg>