<svg width="19" height="15" viewBox="0 0 19 15" xmlns="http://www.w3.org/2000/svg"><path d="M18.081 1.732a7.348 7.348 0 01-2.12.58A3.7 3.7 0 0017.583.27a7.392 7.392 0 01-2.345.896 3.693 3.693 0 00-6.292 3.368A10.485 10.485 0 011.335.676c-.318.545-.5 1.18-.5 1.857a3.69 3.69 0 001.642 3.073 3.682 3.682 0 01-1.672-.462v.047a3.696 3.696 0 002.962 3.621 3.713 3.713 0 01-1.668.063 3.697 3.697 0 003.45 2.564A7.408 7.408 0 01.08 12.97a10.45 10.45 0 005.661 1.659C12.535 14.628 16.25 9 16.25 4.12c0-.16-.003-.32-.01-.478a7.48 7.48 0 001.842-1.911z" fill="#FFF" fill-rule="nonzero"/></svg>