<svg width="19" height="18" viewBox="0 0 19 18" xmlns="http://www.w3.org/2000/svg"><g fill="#fff" fill-rule="nonzero"><path d="M15.369 8.226H4.163a3.226 3.226 0 00-3.226 3.226v2.593a3.226 3.226 0 003.226 3.226h11.206a3.226 3.226 0 003.225-3.226v-2.593a3.227 3.227 0 00-3.225-3.226zm-8.852 2.018H5.475v5.177H4.47v-5.177H3.427v-.88h3.09v.88zm2.943 5.177h-.893v-.49a1.91 1.91 0 01-.515.413 1.076 1.076 0 01-.52.142c-.207 0-.36-.065-.466-.2-.104-.133-.157-.33-.157-.598v-3.736h.893v3.428c0 .106.02.182.056.23.038.048.1.07.183.07a.508.508 0 00.249-.094c.101-.063.193-.142.277-.24v-3.394h.893v4.469zm3.241-.923c0 .316-.07.559-.21.728-.14.169-.343.252-.607.252-.176 0-.332-.031-.467-.097a1.148 1.148 0 01-.382-.303v.343h-.904V9.364h.904v1.95c.12-.135.248-.24.382-.31a.877.877 0 01.412-.106c.283 0 .498.095.647.285.15.19.225.47.225.835v2.48zm3.097-1.204H14.09v.842c0 .235.029.398.087.49.06.09.16.135.303.135.148 0 .251-.038.31-.115.058-.078.09-.247.09-.51v-.203h.918v.229c0 .458-.11.803-.337 1.036-.222.23-.556.345-1.001.345-.401 0-.717-.122-.946-.367-.229-.244-.345-.583-.345-1.014v-2.007c0-.386.127-.704.38-.948s.578-.365.978-.365c.409 0 .723.112.942.339.22.226.33.55.33.974v1.14z"/><path d="M14.489 11.623c-.143 0-.244.04-.306.123-.064.079-.093.213-.093.4v.453h.79v-.452c0-.188-.032-.322-.095-.4-.06-.084-.16-.124-.296-.124zM11.408 11.608a.44.44 0 00-.189.043.64.64 0 00-.184.137v2.784a.763.763 0 00.212.159c.068.03.14.048.216.048.11 0 .19-.032.24-.096.052-.063.077-.165.077-.307v-2.308c0-.152-.03-.266-.093-.344a.346.346 0 00-.279-.116zM5.63 6.674h1.132V3.905L8.08 0H6.93l-.701 2.668h-.072L5.422 0h-1.14L5.63 4.03zM9.613 6.798c.457 0 .816-.12 1.077-.36.26-.24.39-.57.39-.99V2.904c0-.374-.133-.683-.398-.92-.266-.238-.607-.358-1.023-.358-.458 0-.822.114-1.092.34-.27.225-.406.528-.406.91v2.552c0 .419.132.75.396.998s.617.372 1.056.372zm-.417-3.959c0-.107.039-.193.114-.261a.446.446 0 01.3-.098c.133 0 .24.032.323.098a.323.323 0 01.122.261v2.682c0 .132-.04.236-.12.311a.453.453 0 01-.325.113c-.132 0-.235-.036-.307-.112a.432.432 0 01-.107-.312V2.839zM12.598 6.746c.189 0 .383-.054.583-.158.202-.105.395-.259.58-.46v.546h1.005V1.751H13.76v3.737a1.392 1.392 0 01-.31.264.583.583 0 01-.28.104c-.095 0-.164-.026-.205-.08-.041-.05-.065-.135-.065-.25V1.75h-1.004v4.114c0 .294.06.513.176.659.119.147.292.222.526.222z"/></g></svg>